<mxfile host="app.diagrams.net" modified="2023-10-11T06:45:00.156Z" agent="Mozilla/5.0 (Windows NT 10.0; Win64; x64) AppleWebKit/537.36 (KHTML, like Gecko) Chrome/117.0.0.0 Safari/537.36 Edg/117.0.2045.60" etag="X7332xSZL29Jz6zIK_Wf" version="22.0.4" type="github">
  <diagram name="Page-1" id="eciFuEPHseNQ9Xuv77bm">
    <mxGraphModel dx="1586" dy="891" grid="1" gridSize="10" guides="1" tooltips="1" connect="1" arrows="1" fold="1" page="1" pageScale="1" pageWidth="850" pageHeight="1100" math="0" shadow="0">
      <root>
        <mxCell id="0" />
        <mxCell id="1" parent="0" />
        <mxCell id="Zrv3GJVJ47RBzd-fdNkw-1" value="Telkomsel&lt;br&gt;*858#" style="ellipse;whiteSpace=wrap;html=1;aspect=fixed;" vertex="1" parent="1">
          <mxGeometry x="385" y="160" width="80" height="80" as="geometry" />
        </mxCell>
        <mxCell id="Zrv3GJVJ47RBzd-fdNkw-2" value="User" style="rounded=0;whiteSpace=wrap;html=1;" vertex="1" parent="1">
          <mxGeometry x="50" y="170" width="120" height="60" as="geometry" />
        </mxCell>
        <mxCell id="Zrv3GJVJ47RBzd-fdNkw-3" value="Target" style="rounded=0;whiteSpace=wrap;html=1;" vertex="1" parent="1">
          <mxGeometry x="700" y="170" width="120" height="60" as="geometry" />
        </mxCell>
        <mxCell id="Zrv3GJVJ47RBzd-fdNkw-4" value="" style="endArrow=classic;html=1;rounded=0;exitX=1;exitY=0.25;exitDx=0;exitDy=0;entryX=0;entryY=0;entryDx=0;entryDy=0;" edge="1" parent="1" source="Zrv3GJVJ47RBzd-fdNkw-2" target="Zrv3GJVJ47RBzd-fdNkw-1">
          <mxGeometry width="50" height="50" relative="1" as="geometry">
            <mxPoint x="400" y="430" as="sourcePoint" />
            <mxPoint x="450" y="380" as="targetPoint" />
          </mxGeometry>
        </mxCell>
        <mxCell id="Zrv3GJVJ47RBzd-fdNkw-5" value="" style="endArrow=classic;html=1;rounded=0;entryX=0;entryY=0.5;entryDx=0;entryDy=0;exitX=1;exitY=0.5;exitDx=0;exitDy=0;" edge="1" parent="1" source="Zrv3GJVJ47RBzd-fdNkw-1" target="Zrv3GJVJ47RBzd-fdNkw-3">
          <mxGeometry width="50" height="50" relative="1" as="geometry">
            <mxPoint x="465" y="250" as="sourcePoint" />
            <mxPoint x="535.7106781186548" y="200" as="targetPoint" />
          </mxGeometry>
        </mxCell>
        <mxCell id="Zrv3GJVJ47RBzd-fdNkw-6" value="" style="endArrow=classic;html=1;rounded=0;exitX=0;exitY=1;exitDx=0;exitDy=0;entryX=1;entryY=0.75;entryDx=0;entryDy=0;" edge="1" parent="1" source="Zrv3GJVJ47RBzd-fdNkw-1" target="Zrv3GJVJ47RBzd-fdNkw-2">
          <mxGeometry width="50" height="50" relative="1" as="geometry">
            <mxPoint x="314.28932188134524" y="250" as="sourcePoint" />
            <mxPoint x="314.28932188134524" y="200" as="targetPoint" />
          </mxGeometry>
        </mxCell>
        <mxCell id="Zrv3GJVJ47RBzd-fdNkw-7" value="mengajukan transfer" style="text;html=1;align=center;verticalAlign=middle;resizable=0;points=[];autosize=1;strokeColor=none;fillColor=none;" vertex="1" parent="1">
          <mxGeometry x="207" y="140" width="150" height="30" as="geometry" />
        </mxCell>
        <mxCell id="Zrv3GJVJ47RBzd-fdNkw-8" value="Menerima menu transfer" style="text;html=1;align=center;verticalAlign=middle;resizable=0;points=[];autosize=1;strokeColor=none;fillColor=none;" vertex="1" parent="1">
          <mxGeometry x="192" y="230" width="180" height="30" as="geometry" />
        </mxCell>
        <mxCell id="Zrv3GJVJ47RBzd-fdNkw-9" value="Mengirimkan hasil transfer" style="text;html=1;align=center;verticalAlign=middle;resizable=0;points=[];autosize=1;strokeColor=none;fillColor=none;" vertex="1" parent="1">
          <mxGeometry x="490" y="160" width="190" height="30" as="geometry" />
        </mxCell>
        <mxCell id="Zrv3GJVJ47RBzd-fdNkw-10" value="&lt;b&gt;&lt;font style=&quot;font-size: 17px;&quot;&gt;DFD LEVEL 0 : LAYANAN *858#&lt;/font&gt;&lt;/b&gt;" style="text;html=1;align=center;verticalAlign=middle;resizable=0;points=[];autosize=1;strokeColor=none;fillColor=none;" vertex="1" parent="1">
          <mxGeometry x="280" y="90" width="280" height="30" as="geometry" />
        </mxCell>
      </root>
    </mxGraphModel>
  </diagram>
</mxfile>
